<?xml version="1.0" encoding="UTF-8"?>
<svg width="18px" height="18px" viewBox="0 0 18 18" version="1.1" xmlns="http://www.w3.org/2000/svg" xmlns:xlink="http://www.w3.org/1999/xlink">
    <!-- Generator: Sketch 55.2 (78181) - https://sketchapp.com -->
    <title>logo-no-bg</title>
    <desc>Created with Sketch.</desc>
    <g id="Page-1" stroke="none" stroke-width="1" fill="none" fill-rule="evenodd">
        <g id="logo-no-bg" transform="translate(-1.000000, 0.000000)" fill="#8714FF" fill-rule="nonzero">
            <g id="Group" transform="translate(0.130000, 0.000000)">
                <path d="M18.555,8.778 C18.555,3.93004447 14.6249555,2.84217094e-14 9.777,2.84217094e-14 C4.92904447,2.84217094e-14 0.998991548,3.93004447 0.998991548,8.778 C0.995981399,10.9503494 1.80161215,13.0460588 3.259,14.657 L3.259,16.099 C3.259,16.899 3.751,17.5560001 4.359,17.5560001 L10.189,17.5560001 C10.2505472,17.5560001 10.311913,17.5493271 10.372,17.536 C14.9784797,17.2235672 18.5555376,13.3960628 18.556,8.779" id="Path"></path>
            </g>
            <g id="Group" transform="translate(1.130000, 0.000000)">
                <path d="M3.161,8.921 C3.13321469,4.88763025 5.71068792,1.29694341 9.541,0.033 C9.289,0.011 9.035,-9.13522598e-07 8.778,-9.13522598e-07 C6.44960432,-0.0010617401 4.21626873,0.923419647 2.56984419,2.56984419 C0.923419647,4.21626873 -0.0010617401,6.44960432 -9.13522626e-07,8.778 C0.0436878575,10.9479795 0.828479714,13.0376995 2.224,14.7 C2.229,14.7 2.224,14.709 2.224,14.71 C1.913,15.062 0.3,17.559 2.245,17.559 L4.495,17.559 C3.265,17.537 5.758,15.452 4.764,14.065 C3.6689883,12.5793749 3.10544565,10.7686419 3.164,8.924" id="Path"></path>
            </g>
        </g>
    </g>
</svg>